<?xml version="1.0" standalone="no"?>
<!DOCTYPE svg PUBLIC "-//W3C//DTD SVG 20010904//EN"
 "http://www.w3.org/TR/2001/REC-SVG-20010904/DTD/svg10.dtd">
<svg version="1.0" xmlns="http://www.w3.org/2000/svg"
 width="225.000000pt" height="225.000000pt" viewBox="0 0 225.000000 225.000000"
 preserveAspectRatio="xMidYMid meet">

<g transform="translate(0.000000,225.000000) scale(0.100000,-0.100000)"
fill="#000000" stroke="none">
<path d="M820 2204 c-142 -38 -276 -127 -355 -238 -98 -137 -125 -245 -125
-491 l0 -166 -155 -403 c-85 -222 -155 -411 -155 -420 0 -30 27 -70 82 -122
69 -65 123 -101 233 -156 473 -237 1087 -237 1560 0 110 55 164 91 233 156 55
52 82 92 82 122 0 9 -70 198 -155 420 l-155 403 0 166 c0 246 -27 354 -125
491 -81 112 -214 201 -360 239 -82 21 -524 21 -605 -1z m92 -655 c29 -6 88
-29 130 -51 84 -43 95 -43 159 -3 114 73 276 82 398 23 61 -29 139 -110 177
-183 17 -33 100 -236 184 -452 130 -333 151 -395 140 -408 -7 -9 -25 -15 -39
-13 -24 3 -36 30 -181 404 -86 220 -168 422 -184 447 -55 96 -118 140 -225
158 -90 16 -143 2 -286 -75 -46 -25 -82 -19 -166 24 -101 52 -162 65 -240 51
-107 -18 -170 -62 -225 -158 -16 -25 -98 -227 -184 -447 -145 -374 -157 -401
-181 -404 -14 -2 -32 4 -39 13 -11 13 10 75 140 408 84 215 166 419 184 452
90 170 257 252 438 214z m33 -208 c78 -36 105 -85 105 -191 0 -103 6 -100
-226 -100 -108 0 -203 4 -214 10 -62 33 -31 183 52 241 81 58 206 76 283 40z
m598 -14 c67 -33 105 -79 123 -148 15 -56 4 -103 -26 -119 -11 -6 -106 -10
-214 -10 -232 0 -226 -3 -226 100 0 76 11 113 43 149 63 68 192 80 300 28z
m-364 -371 c48 -25 61 -56 61 -146 l0 -80 -115 0 -115 0 0 80 c0 58 5 88 16
106 34 50 99 67 153 40z m-91 -458 l3 -158 -61 0 -60 0 0 160 0 161 58 -3 57
-3 3 -157z m192 2 l0 -160 -60 0 -60 0 0 153 c0 85 3 157 7 160 3 4 30 7 60 7
l53 0 0 -160z m-390 -45 l0 -115 -40 0 -40 0 0 77 c0 75 1 78 37 115 20 21 38
38 40 38 2 0 3 -52 3 -115z m550 -37 l0 -78 -40 0 -40 0 0 117 0 117 40 -39
c40 -39 40 -39 40 -117z m-748 -35 c37 -33 11 -103 -38 -103 -20 0 -64 41 -64
60 0 4 9 19 21 34 23 30 54 33 81 9z m951 -15 l21 -28 -21 -27 c-24 -34 -58
-41 -84 -17 -39 35 -11 108 39 102 14 -2 34 -15 45 -30z"/>
</g>
</svg>
