<?xml version="1.0" standalone="no"?>
<!DOCTYPE svg PUBLIC "-//W3C//DTD SVG 20010904//EN"
 "http://www.w3.org/TR/2001/REC-SVG-20010904/DTD/svg10.dtd">
<svg version="1.0" xmlns="http://www.w3.org/2000/svg"
 width="760.000000pt" height="800.000000pt" viewBox="0 0 760.000000 800.000000"
 preserveAspectRatio="xMidYMid meet">

<g transform="translate(0.000000,800.000000) scale(0.100000,-0.100000)"
fill="#000000" stroke="none">
<path d="M3530 7904 c-540 -49 -984 -173 -1344 -376 -683 -384 -1044 -991
-1092 -1838 -6 -112 -7 -116 -39 -150 -63 -67 -79 -113 -79 -230 -1 -120 10
-160 61 -226 l34 -46 -29 -81 c-28 -79 -31 -82 -63 -85 -63 -6 -94 -50 -145
-207 l-32 -99 -64 -41 c-71 -47 -128 -105 -157 -163 -22 -44 -51 -237 -51
-343 0 -57 5 -77 36 -137 l37 -71 -17 -81 c-27 -135 -17 -229 33 -299 l22 -30
-89 -133 c-261 -392 -396 -680 -437 -930 -40 -247 0 -479 117 -681 62 -107
129 -189 298 -366 214 -225 294 -318 565 -657 259 -323 350 -416 458 -469 218
-105 705 -112 1001 -14 172 57 301 143 387 256 26 34 49 67 51 74 3 10 31 1
104 -32 237 -110 455 -147 789 -136 269 10 425 43 604 128 57 27 107 49 111
49 5 0 19 -19 33 -43 81 -137 276 -264 487 -316 151 -38 223 -46 425 -45 370
1 521 48 682 212 37 37 162 186 278 332 240 301 372 455 560 650 210 218 276
306 346 454 51 110 77 209 90 346 16 178 8 256 -47 417 -80 238 -170 413 -372
726 l-115 178 21 22 c55 59 71 197 39 330 l-14 57 34 65 c45 84 49 137 28 305
-14 111 -22 145 -48 193 -33 63 -94 123 -167 164 -44 25 -45 27 -84 145 -47
146 -80 188 -144 188 l-40 0 -30 88 -29 88 33 38 c51 59 67 120 62 239 -5 113
-20 156 -82 225 -33 37 -33 37 -39 168 -27 578 -240 1087 -607 1452 -389 387
-930 623 -1642 718 -109 14 -626 27 -728 18z m665 -134 c801 -95 1421 -401
1784 -879 170 -224 291 -495 356 -795 30 -140 55 -354 55 -471 l0 -90 -2591 0
-2592 0 7 125 c28 502 159 896 411 1232 372 494 1048 814 1877 887 127 12 571
6 693 -9z m2252 -2859 c42 -120 51 -156 41 -163 -23 -14 -27 -9 -33 40 -10 75
-25 132 -46 173 -30 60 -31 46 -1 -18 20 -46 27 -78 30 -149 4 -90 3 -94 -58
-275 -198 -588 -419 -979 -603 -1065 -63 -29 -89 -30 -192 -5 -249 61 -782
286 -1125 475 -94 52 -35 11 84 -58 124 -72 434 -227 579 -291 255 -110 465
-175 568 -175 149 0 289 139 445 442 l71 141 7 -85 c10 -109 -9 -305 -39 -427
-24 -93 -84 -230 -124 -280 l-19 -25 -37 30 c-21 16 -48 37 -61 47 -12 10 21
-26 74 -81 77 -78 106 -116 140 -183 75 -150 68 -231 -40 -419 -139 -242 -267
-389 -393 -451 -63 -31 -78 -34 -155 -34 -75 0 -92 4 -150 32 -36 17 -94 57
-130 87 -36 31 -112 97 -170 146 -177 152 -420 308 -671 429 -402 194 -688
220 -1050 95 -166 -57 -389 -172 -585 -303 -173 -115 -243 -170 -428 -333
-102 -90 -150 -120 -230 -143 -82 -24 -155 -17 -240 23 -133 63 -307 270 -431
516 -40 78 -50 108 -53 160 -8 119 52 241 187 380 64 67 68 74 27 41 l-49 -39
-24 30 c-35 43 -89 159 -113 244 -40 142 -63 412 -44 507 6 28 10 22 64 -86
111 -220 240 -384 343 -435 88 -44 192 -32 424 48 222 78 601 255 833 390 144
84 166 104 40 36 -377 -204 -917 -425 -1124 -461 -108 -18 -183 14 -280 122
-146 163 -344 569 -479 984 -54 167 -62 227 -43 315 8 36 12 67 11 69 -6 6
-26 -80 -33 -140 l-7 -58 -24 18 -24 19 53 151 52 151 2591 -2 2590 -3 54
-154z m-5360 -173 c28 -10 56 -24 61 -31 5 -7 15 -118 21 -247 18 -354 46
-564 87 -642 34 -66 -2 -241 -63 -309 -46 -51 -77 -58 -259 -60 -169 -2 -212
9 -240 64 -20 38 -20 137 1 219 24 97 21 94 62 58 34 -30 36 -36 34 -81 -2
-44 0 -49 28 -63 39 -20 54 -20 80 2 20 16 26 55 76 464 30 246 52 454 49 461
-6 17 -47 37 -76 37 -12 0 -18 5 -16 13 3 6 13 37 23 67 29 89 25 88 132 48z
m5563 -12 c10 -25 23 -61 29 -80 9 -35 9 -36 -19 -36 -15 0 -38 -8 -51 -19
l-23 -18 53 -439 c29 -242 55 -449 58 -461 6 -28 51 -47 84 -34 40 15 52 36
45 80 -6 37 -3 41 34 71 l39 31 10 -38 c51 -191 40 -277 -41 -319 -27 -14 -58
-17 -182 -15 -164 2 -186 5 -232 32 -77 47 -134 262 -91 345 39 76 69 304 87
673 8 153 13 198 25 210 13 13 122 58 148 60 4 1 16 -19 27 -43z m-229 -338
c-19 -304 -50 -508 -88 -566 -12 -19 -13 -41 -8 -110 12 -138 72 -248 149
-271 17 -5 98 -12 181 -16 82 -3 150 -7 151 -8 187 -278 314 -480 387 -617 52
-98 127 -270 127 -292 0 -5 -26 24 -59 64 -154 193 -284 278 -620 403 -40 15
-89 41 -108 58 -91 80 -150 224 -187 462 -3 17 -3 -35 0 -115 4 -161 18 -235
57 -304 14 -25 22 -46 19 -46 -4 0 -70 9 -147 20 -77 11 -145 20 -151 20 -7 0
-24 16 -38 35 l-27 35 24 32 c14 18 41 65 60 103 81 164 112 341 104 609 l-5
178 52 137 c28 75 69 193 91 262 22 70 42 125 44 124 1 -2 -2 -91 -8 -197z
m-5429 107 c-2 -44 -24 -249 -50 -455 l-47 -375 -31 -3 c-38 -4 -59 18 -50 54
5 20 10 23 20 15 11 -10 18 9 35 101 40 218 71 491 71 631 0 61 -2 68 -15 57
-18 -15 -19 -3 -5 35 8 22 15 26 42 23 l33 -3 -3 -80z m5706 45 c2 -34 2 -34
-13 -15 -15 19 -16 17 -11 -30 3 -27 8 -100 11 -160 7 -137 37 -373 66 -523
19 -96 24 -110 33 -91 l10 24 4 -28 c2 -16 1 -35 -2 -43 -6 -16 -62 -19 -71
-4 -3 5 -30 207 -59 447 -39 314 -51 442 -43 451 6 7 24 12 41 10 28 -3 31 -7
34 -38z m-5348 -410 c22 -52 23 -65 21 -260 -3 -227 11 -348 54 -477 29 -84
72 -172 109 -222 l25 -34 -27 -32 c-25 -30 -34 -33 -147 -49 -66 -9 -137 -20
-158 -23 l-38 -6 30 59 c36 72 49 147 56 324 l5 135 -15 -90 c-17 -106 -57
-240 -92 -309 -14 -27 -46 -69 -71 -95 -40 -39 -68 -54 -187 -100 -170 -65
-261 -110 -340 -166 -76 -54 -190 -170 -255 -259 -27 -38 -50 -67 -50 -64 0
20 60 173 103 263 64 132 138 257 302 506 l122 186 108 6 c60 4 132 7 162 7
56 0 114 23 145 57 63 69 103 272 68 343 -40 81 -73 317 -85 600 l-6 145 69
-195 c38 -107 79 -220 92 -250z m90 -1147 c0 -5 -9 -33 -21 -63 -17 -45 -20
-71 -17 -140 4 -82 6 -90 67 -205 125 -238 259 -406 380 -475 33 -19 61 -41
61 -49 0 -22 -115 -127 -187 -170 -38 -23 -148 -77 -243 -121 -210 -97 -314
-158 -386 -227 -94 -90 -131 -210 -105 -347 6 -33 10 -61 8 -62 -7 -8 -502
590 -528 638 -6 11 -26 86 -44 167 -18 80 -38 157 -44 171 l-11 25 4 -25 c23
-121 37 -222 32 -227 -3 -4 -6 3 -6 14 0 11 -16 66 -36 124 -51 144 -55 224
-18 335 3 11 -3 6 -15 -11 -84 -119 -79 -384 10 -529 71 -114 185 -253 424
-516 266 -291 286 -318 338 -435 l27 -60 -33 40 c-140 171 -321 378 -463 525
-92 96 -194 210 -226 254 -113 151 -175 316 -184 491 l-6 100 94 179 c80 155
103 191 167 258 119 126 246 214 377 261 67 24 274 59 458 76 116 12 126 12
126 4z m5056 -29 c99 -13 205 -31 235 -40 130 -39 264 -126 395 -259 72 -73
89 -98 169 -251 l88 -169 -1 -90 c-1 -169 -52 -330 -152 -482 -36 -55 -118
-151 -211 -249 -161 -168 -293 -316 -427 -477 -45 -54 -82 -96 -82 -92 0 17
63 127 98 171 21 27 119 137 217 244 384 422 477 550 510 705 27 126 16 244
-31 337 -34 67 -44 67 -21 0 25 -75 18 -152 -27 -285 -19 -56 -37 -111 -39
-122 -13 -55 -6 30 8 102 34 177 1 95 -40 -101 -15 -71 -34 -131 -47 -150 -72
-103 -506 -621 -514 -613 -2 2 1 38 7 79 20 134 -17 235 -121 331 -77 72 -161
121 -369 215 -244 111 -359 185 -421 272 l-20 28 57 32 c118 67 250 226 376
455 92 168 106 243 67 367 -11 34 -20 67 -20 71 0 10 91 2 316 -29z m-2551
-59 c50 -8 122 -24 160 -35 77 -22 237 -81 232 -86 -2 -2 -27 3 -57 11 -71 19
-260 45 -308 43 -33 -1 -31 -2 13 -7 l50 -6 3 -389 2 -389 -37 7 c-21 3 -73 9
-115 13 -65 5 -78 4 -78 -9 0 -12 28 -19 126 -32 132 -17 315 -50 896 -160
192 -36 374 -66 407 -66 82 0 187 54 320 166 l103 86 29 -34 c15 -18 28 -36
29 -39 0 -11 115 -97 176 -132 32 -19 131 -67 219 -107 274 -124 392 -206 450
-311 28 -50 30 -61 29 -154 0 -86 -5 -113 -33 -195 -54 -155 -209 -465 -244
-487 -7 -5 -45 -47 -86 -95 -141 -169 -219 -224 -358 -253 -316 -65 -696 -27
-928 94 -118 61 -220 177 -259 294 -11 33 -34 26 -264 -77 -193 -87 -427 -124
-702 -112 -243 10 -417 49 -572 127 -126 64 -228 94 -228 68 0 -6 -14 -40 -31
-75 -70 -142 -239 -255 -459 -309 -273 -66 -656 -51 -829 33 -106 52 -275 243
-381 431 -147 262 -224 503 -199 625 30 145 146 244 445 380 198 90 261 122
330 172 62 44 154 137 154 157 0 5 24 -12 53 -39 78 -74 170 -142 243 -180
101 -53 94 -53 699 62 349 67 696 127 798 139 42 5 57 10 57 22 0 14 -10 15
-72 10 -40 -4 -90 -10 -110 -13 l-38 -7 0 391 0 391 43 4 c23 2 4 2 -42 0 -73
-4 -267 -38 -326 -57 -11 -4 4 4 33 18 78 37 256 92 342 106 41 6 82 13 90 15
41 8 144 3 225 -10z m-505 -493 l0 -388 -77 -13 c-43 -7 -88 -15 -100 -18
l-23 -5 0 380 0 379 83 23 c45 12 87 24 92 25 6 2 13 4 18 4 4 1 7 -174 7
-387z m863 356 l77 -20 0 -379 c0 -297 -3 -379 -12 -378 -7 0 -53 8 -103 17
l-90 17 -3 389 -2 388 27 -6 c16 -4 63 -16 106 -28z m-1203 -442 l0 -363 -100
-20 -100 -20 0 336 0 336 93 47 c50 26 95 47 100 47 4 1 7 -163 7 -363z m1495
330 c33 -18 75 -41 92 -52 l33 -19 0 -331 0 -332 -62 13 c-35 7 -80 16 -100
19 l-38 7 0 364 c0 201 3 365 8 365 4 0 34 -15 67 -34z m-1842 -757 c-8 -7
-178 -39 -207 -39 -14 0 -16 26 -16 234 l0 234 88 69 c48 38 98 77 112 86 l25
17 3 -297 c1 -163 -1 -300 -5 -304z m2254 492 l83 -66 0 -232 0 -233 -22 0
c-13 1 -63 9 -113 18 l-90 17 -3 303 -2 304 32 -23 c18 -12 70 -52 115 -88z
m-2617 -381 c0 -173 -1 -180 -20 -180 -56 0 -200 83 -303 174 l-37 34 72 10
c81 12 177 56 236 108 20 18 40 33 45 34 4 0 7 -81 7 -180z m2918 126 c88 -60
152 -85 229 -88 61 -4 60 -6 -46 -90 -88 -71 -178 -118 -229 -121 l-37 -2 -3
178 c-1 97 0 177 2 177 3 0 41 -24 84 -54z"/>
<path d="M5216 7368 c3 -7 45 -32 93 -55 240 -116 476 -349 616 -608 108 -201
181 -452 209 -722 l7 -61 -53 -26 c-76 -37 -233 -74 -371 -88 -103 -10 -123
-15 -143 -35 l-23 -23 364 0 365 0 0 48 c0 65 -25 235 -51 345 -60 258 -184
514 -350 722 -73 93 -254 262 -359 337 -102 72 -314 188 -304 166z"/>
<path d="M1966 5625 c5 -13 40 -15 233 -15 170 1 233 4 256 15 26 12 -2 13
-232 14 -229 1 -262 -1 -257 -14z"/>
<path d="M2490 5631 c0 -17 14 -18 60 -5 l45 12 -52 1 c-29 1 -53 -3 -53 -8z"/>
<path d="M2647 5626 c-4 -10 11 -15 66 -20 40 -4 90 -9 113 -12 36 -5 43 -3
58 20 l16 26 -124 0 c-96 0 -125 -3 -129 -14z"/>
<path d="M1575 5003 c-35 -9 -75 -44 -95 -83 -16 -31 -20 -58 -19 -127 1 -48
5 -99 10 -113 5 -16 6 -1 3 41 -12 135 33 236 114 259 20 5 69 10 107 11 39 0
79 4 90 9 21 9 -174 12 -210 3z"/>
<path d="M5824 5003 c3 -4 54 -10 112 -14 122 -7 146 -19 182 -89 18 -36 22
-62 23 -140 2 -112 16 -79 18 41 1 99 -25 154 -89 187 -38 19 -60 22 -149 22
-57 0 -101 -3 -97 -7z"/>
<path d="M3101 4976 c3 -3 39 -12 80 -20 207 -42 283 -84 298 -166 l9 -45 1
47 c2 82 -60 132 -199 161 -81 17 -197 31 -189 23z"/>
<path d="M4445 4973 c-108 -13 -168 -27 -223 -54 -71 -35 -93 -65 -91 -131 l2
-43 6 43 c14 83 77 121 271 162 131 28 144 37 35 23z"/>
<path d="M1675 4923 c-88 -5 -103 -10 -121 -45 -24 -45 -14 -186 21 -303 60
-206 181 -435 293 -556 83 -89 121 -113 170 -105 260 46 1005 474 1270 730
102 98 123 144 83 180 -49 44 -240 78 -546 96 -152 9 -1017 11 -1170 3z"/>
<path d="M4820 4923 c-286 -15 -496 -45 -569 -82 -36 -19 -41 -26 -41 -55 0
-48 56 -116 182 -216 321 -259 940 -604 1166 -651 60 -13 61 -12 102 16 238
165 504 813 394 960 -12 16 -31 21 -102 27 -83 6 -1017 7 -1132 1z"/>
<path d="M3374 4609 c-53 -59 -367 -278 -648 -451 -88 -54 -155 -98 -150 -98
5 0 77 38 161 84 156 87 311 186 443 285 72 53 232 200 219 201 -3 0 -14 -10
-25 -21z"/>
<path d="M4236 4606 c5 -14 77 -77 179 -160 123 -99 414 -282 565 -355 80 -38
78 -37 -150 105 -224 140 -434 285 -529 364 -38 33 -68 53 -65 46z"/>
<path d="M1540 4437 c0 -15 50 -137 85 -207 79 -158 201 -312 294 -372 65 -41
129 -37 259 14 76 30 59 31 -31 3 -43 -14 -100 -25 -126 -25 -42 0 -57 6 -107
43 -104 77 -213 227 -315 432 -32 65 -59 116 -59 112z"/>
<path d="M6011 4312 c-29 -59 -77 -144 -107 -189 -64 -98 -191 -234 -241 -258
-46 -22 -120 -16 -223 18 -41 14 -76 24 -78 22 -10 -9 172 -68 225 -73 52 -4
67 -1 100 19 89 55 190 172 270 314 43 76 117 244 111 250 -2 2 -28 -44 -57
-103z"/>
<path d="M1446 3770 c9 -118 36 -274 60 -350 26 -82 88 -190 109 -190 8 0 23
14 35 30 12 17 25 28 28 26 4 -2 7 40 6 94 -1 98 -1 98 -37 141 -52 60 -136
183 -174 254 l-31 59 4 -64z"/>
<path d="M6162 3809 c-2 -19 -124 -206 -183 -279 l-44 -55 0 -93 c-1 -91 -1
-92 32 -124 32 -31 33 -31 54 -12 34 30 79 130 104 228 27 107 49 266 42 316
-2 19 -5 28 -5 19z"/>
<path d="M1699 3253 c-13 -16 -12 -17 4 -4 9 7 17 15 17 17 0 8 -8 3 -21 -13z"/>
<path d="M1045 4683 c3 -16 21 -147 40 -293 44 -334 83 -571 101 -623 8 -22
14 -54 14 -71 0 -27 -27 -116 -55 -181 -8 -18 -7 -19 9 -6 25 21 52 78 65 139
15 74 14 104 -9 175 -34 106 -67 391 -85 738 l-7 126 -32 11 c-44 16 -46 16
-41 -15z"/>
<path d="M726 3744 c-10 -27 -7 -204 5 -226 19 -35 70 -48 194 -48 130 0 165
11 190 60 8 16 15 44 15 62 l-1 33 -14 -40 c-13 -37 -38 -65 -57 -65 -5 0 0
12 11 28 12 16 23 51 27 87 l6 60 -31 -37 c-72 -85 -261 -93 -291 -12 -6 14
-10 45 -10 70 0 36 -3 44 -19 44 -10 0 -22 -7 -25 -16z"/>
<path d="M6528 4699 c-30 -11 -27 5 -48 -319 -19 -297 -53 -526 -86 -592 -24
-47 8 -206 53 -258 24 -29 48 -36 26 -8 -39 49 -66 195 -44 237 18 33 141 847
141 931 0 22 -3 23 -42 9z"/>
<path d="M6848 3703 c-4 -48 -10 -61 -38 -86 -32 -28 -36 -29 -105 -25 -84 6
-128 27 -162 78 l-23 33 0 -47 c0 -49 22 -115 43 -128 8 -5 7 -8 -4 -8 -23 0
-48 32 -60 75 -14 51 -21 38 -10 -20 5 -29 19 -57 35 -74 25 -25 33 -26 143
-29 199 -6 233 16 233 154 0 89 -11 134 -34 134 -9 0 -15 -17 -18 -57z"/>
<path d="M6284 3799 c0 -194 -3 -238 -23 -329 -25 -117 -68 -227 -112 -292
l-30 -43 31 35 c114 129 170 360 156 640 -12 229 -21 224 -22 -11z"/>
<path d="M6332 3575 c0 -16 2 -22 5 -12 2 9 2 23 0 30 -3 6 -5 -1 -5 -18z"/>
<path d="M1320 3939 c-18 -146 -8 -401 19 -504 26 -97 78 -208 120 -255 l31
-35 -30 46 c-96 149 -135 351 -128 664 2 102 3 185 2 185 -1 0 -7 -46 -14
-101z"/>
<path d="M1087 2909 c-44 -10 -97 -36 -97 -47 0 -14 133 -238 228 -382 84
-129 192 -279 253 -350 26 -31 30 -38 -84 170 -142 263 -207 415 -207 487 0
27 6 37 41 58 30 20 39 32 37 48 -3 20 -9 22 -68 24 -36 1 -82 -3 -103 -8z"/>
<path d="M774 2712 c-78 -57 -181 -187 -293 -371 -53 -87 -63 -121 -35 -121
23 0 62 44 212 237 84 108 152 185 185 209 64 48 67 68 12 72 -32 2 -49 -3
-81 -26z"/>
<path d="M905 2551 c-71 -43 -180 -177 -289 -355 -66 -106 -80 -146 -50 -146
22 0 52 33 207 233 88 113 156 191 187 213 47 34 64 56 53 68 -13 13 -79 5
-108 -13z"/>
<path d="M1041 2393 c-72 -36 -182 -166 -305 -363 -72 -115 -80 -140 -42 -140
20 0 46 28 134 143 157 205 205 261 257 298 46 33 58 62 29 73 -23 9 -36 7
-73 -11z"/>
<path d="M1162 2225 c-68 -30 -186 -169 -310 -369 -64 -103 -75 -136 -44 -136
28 0 38 12 185 201 75 98 163 201 197 229 62 54 72 73 44 84 -22 9 -35 7 -72
-9z"/>
<path d="M1259 2042 c-76 -49 -182 -181 -298 -371 -54 -90 -63 -121 -33 -121
26 0 40 14 108 104 135 182 237 303 280 334 50 37 64 60 43 73 -25 15 -54 10
-100 -19z"/>
<path d="M6361 2907 c-16 -20 -9 -32 40 -63 31 -19 39 -30 39 -54 0 -71 -83
-260 -229 -524 -45 -82 -81 -150 -79 -151 6 -7 188 244 281 385 110 169 207
338 207 361 0 25 -74 51 -165 56 -66 5 -83 3 -94 -10z"/>
<path d="M6724 2728 c-4 -6 7 -23 27 -40 78 -67 120 -115 244 -277 128 -167
167 -203 189 -181 13 13 -3 44 -102 195 -135 209 -240 315 -312 315 -21 0 -42
-5 -46 -12z"/>
<path d="M6605 2559 c-8 -13 19 -45 58 -67 29 -17 168 -184 284 -342 55 -75
94 -107 114 -95 17 11 9 32 -60 142 -110 178 -214 305 -291 357 -27 18 -95 22
-105 5z"/>
<path d="M6494 2395 c-18 -15 -18 -16 16 -43 59 -46 125 -120 258 -292 102
-132 134 -166 155 -168 38 -5 35 12 -24 109 -126 208 -250 356 -324 390 -49
23 -56 23 -81 4z"/>
<path d="M6375 2227 c-19 -15 -18 -16 15 -43 70 -58 128 -123 258 -292 108
-139 138 -172 158 -172 15 0 24 6 24 15 0 17 -111 201 -170 280 -130 176 -231
251 -285 212z"/>
<path d="M6250 2055 c-10 -12 -7 -19 15 -37 87 -73 116 -105 232 -256 71 -91
138 -176 150 -189 26 -27 63 -31 63 -7 0 34 -160 278 -257 391 -80 93 -171
137 -203 98z"/>
<path d="M3340 1834 c-204 -15 -660 -61 -740 -74 -45 -7 -37 -8 40 -4 227 12
933 77 965 89 19 7 -91 2 -265 -11z"/>
<path d="M4020 1844 c61 -15 737 -76 960 -88 78 -4 85 -3 40 4 -191 31 -1094
106 -1000 84z"/>
<path d="M3605 1499 c-93 -33 -183 -66 -200 -74 -16 -7 -88 -66 -160 -130
-163 -146 -235 -195 -284 -195 -20 0 -101 13 -180 30 -267 55 -492 63 -636 24
-133 -35 -268 -130 -318 -222 -129 -238 63 -515 328 -472 156 25 265 154 265
313 0 88 -23 148 -81 212 -58 63 -119 95 -198 105 l-56 6 55 17 c146 46 333
40 629 -18 98 -19 187 -35 199 -35 54 0 118 44 321 223 74 64 138 117 142 117
5 0 92 29 193 65 l185 65 183 -65 c101 -36 188 -65 193 -65 6 0 71 -54 145
-120 158 -142 269 -220 311 -220 16 0 106 15 202 34 295 59 491 65 637 19 l55
-17 -55 -7 c-30 -3 -73 -14 -94 -23 -160 -67 -234 -262 -161 -424 107 -238
445 -250 570 -21 34 63 45 172 25 244 -39 139 -210 266 -406 300 -158 27 -303
19 -579 -35 -209 -42 -208 -42 -302 29 -43 32 -130 105 -194 162 l-117 104
-196 68 c-159 56 -199 67 -211 57 -11 -9 -15 -9 -15 -1 0 17 -14 14 -195 -50z
m-1417 -596 c49 -37 67 -71 67 -128 0 -116 -116 -189 -221 -139 -61 29 -97
109 -80 178 8 34 54 86 91 102 39 18 110 12 143 -13z m3410 0 c49 -37 67 -71
67 -128 0 -116 -116 -189 -221 -139 -61 29 -97 109 -80 178 8 34 54 86 91 102
39 18 110 12 143 -13z"/>
<path d="M2029 877 c-68 -45 -72 -148 -8 -201 31 -26 50 -31 103 -27 114 10
146 175 46 235 -40 23 -100 20 -141 -7z"/>
<path d="M5449 885 c-40 -22 -59 -58 -59 -114 0 -86 70 -140 155 -121 42 10
61 24 81 61 31 61 9 146 -46 174 -36 19 -97 19 -131 0z"/>
<path d="M3730 1000 l0 -440 75 0 75 0 0 440 0 440 -75 0 -75 0 0 -440z"/>
<path d="M3590 985 l0 -385 45 0 45 0 0 385 0 385 -45 0 -45 0 0 -385z"/>
<path d="M3940 985 l0 -385 40 0 40 0 0 385 0 385 -40 0 -40 0 0 -385z"/>
<path d="M3460 985 c0 -278 2 -335 14 -335 7 0 28 -3 45 -6 l31 -6 0 341 0
341 -45 0 -45 0 0 -335z"/>
<path d="M4070 979 l0 -341 31 6 c17 3 35 6 40 6 5 0 9 150 9 335 l0 335 -40
0 -40 0 0 -341z"/>
<path d="M3372 1223 l-42 -51 2 -233 3 -233 39 -8 c21 -5 41 -7 43 -5 2 2 2
134 1 292 l-3 289 -43 -51z"/>
<path d="M4200 982 l0 -292 33 6 c17 3 38 7 45 10 9 2 12 58 12 233 l0 229
-36 44 c-20 23 -40 47 -45 53 -5 5 -9 -108 -9 -283z"/>
<path d="M3232 1071 l-52 -60 -3 -105 c-1 -57 1 -108 5 -112 4 -4 29 -12 55
-19 l48 -12 3 94 c1 52 1 134 0 184 l-3 90 -53 -60z"/>
<path d="M4330 945 l0 -183 38 10 c76 21 74 18 70 138 l-3 108 -52 55 -53 56
0 -184z"/>
<path d="M2735 801 c-68 -72 -209 -177 -268 -198 -33 -12 -54 -27 -69 -51 -11
-18 -18 -35 -15 -38 10 -10 161 60 234 109 41 27 92 71 113 98 36 46 66 110
58 127 -2 4 -25 -17 -53 -47z"/>
<path d="M4825 840 c29 -100 116 -192 246 -260 82 -42 159 -73 166 -66 3 2 -6
19 -18 38 -15 24 -37 40 -70 51 -60 22 -153 90 -253 186 -59 58 -77 70 -71 51z"/>
</g>
</svg>
